# xmcd
#
# Track frame offsets: 
#        182
#        13920
#        32675
#        46435
#        61935
#        78072
#        95012
#        110132
#        126175
#        148275
#        162055
#        183045
#        200817
#        214035
#        230365
#
# Disc length: 3322 seconds
#
# Revision: 24
# Processed by: cddbd v1.5.2PL0 Copyright (c) Steve Scherf et al.
# Submitted via: ExactAudioCopyFreeDBPlugin 1.0
#
DISCID=d10cf80f
DTITLE=Tim McGraw - Greatest Hits
DYEAR=2000
DGENRE=Country
TTITLE0=Indian Outlaw
TTITLE1=Don't Take the Girl
TTITLE2=She Never Lets It Go to Her Heart
TTITLE3=I Like It, I Love It
TTITLE4=Just to See You Smile
TTITLE5=It's Your Love
TTITLE6=Where the Green Grass Grows
TTITLE7=For a Little While
TTITLE8=Please Remember Me
TTITLE9=Something Like That
TTITLE10=My Best Friend
TTITLE11=Maybe We Should Just Sleep On It
TTITLE12=Down on the Farm
TTITLE13=My Next Thirty Years
TTITLE14=Let's Make Love
EXTD=Tim McGraw YEAR: 2000
EXTT0=
EXTT1=
EXTT2=
EXTT3=
EXTT4=
EXTT5=
EXTT6=
EXTT7=
EXTT8=
EXTT9=
EXTT10=
EXTT11=
EXTT12=
EXTT13=
EXTT14=
PLAYORDER=
